<?xml version="1.0" standalone="no"?>
<svg xmlns:link="http://www.w3.org/1999/xlink" id="wave" style="transform:rotate(0deg); transition: 0.3s" viewBox="0 0 1440 280" version="1.1" xmlns="http://www.w3.org/2000/svg"><defs><linearGradient id="sw-gradient-0" x1="0" x2="0" y1="1" y2="0"><stop stop-color="rgba(255, 255, 255, 1)" offset="0%"/><stop stop-color="rgba(255, 255, 255, 1)" offset="100%"/></linearGradient></defs><path style="transform:translate(0, 0px); opacity:1" fill="url(#sw-gradient-0)" d="M0,56L14.1,56C28.2,56,56,56,85,46.7C112.9,37,141,19,169,32.7C197.6,47,226,93,254,121.3C282.4,149,311,159,339,177.3C367.1,196,395,224,424,219.3C451.8,215,480,177,508,154C536.5,131,565,121,593,140C621.2,159,649,205,678,186.7C705.9,168,734,84,762,65.3C790.6,47,819,93,847,135.3C875.3,177,904,215,932,233.3C960,252,988,252,1016,228.7C1044.7,205,1073,159,1101,158.7C1129.4,159,1158,205,1186,228.7C1214.1,252,1242,252,1271,252C1298.8,252,1327,252,1355,247.3C1383.5,243,1412,233,1440,191.3C1468.2,149,1496,75,1525,70C1552.9,65,1581,131,1609,172.7C1637.6,215,1666,233,1694,219.3C1722.4,205,1751,159,1779,130.7C1807.1,103,1835,93,1864,107.3C1891.8,121,1920,159,1948,186.7C1976.5,215,2005,233,2019,242.7L2032.9,252L2032.9,280L2018.8,280C2004.7,280,1976,280,1948,280C1920,280,1892,280,1864,280C1835.3,280,1807,280,1779,280C1750.6,280,1722,280,1694,280C1665.9,280,1638,280,1609,280C1581.2,280,1553,280,1525,280C1496.5,280,1468,280,1440,280C1411.8,280,1384,280,1355,280C1327.1,280,1299,280,1271,280C1242.4,280,1214,280,1186,280C1157.6,280,1129,280,1101,280C1072.9,280,1045,280,1016,280C988.2,280,960,280,932,280C903.5,280,875,280,847,280C818.8,280,791,280,762,280C734.1,280,706,280,678,280C649.4,280,621,280,593,280C564.7,280,536,280,508,280C480,280,452,280,424,280C395.3,280,367,280,339,280C310.6,280,282,280,254,280C225.9,280,198,280,169,280C141.2,280,113,280,85,280C56.5,280,28,280,14,280L0,280Z"/></svg>